Coordinates
version=1
nRows=4
nColumns=63
inDegrees=yes

Units are S.I. units (second, meters, Newtons, ...)
If the header above contains a line with 'inDegrees', this indicates whether rotational values are in degrees (yes) or radians (no).

endheader
time	pelvis_tilt	pelvis_list	pelvis_rotation	pelvis_tx	pelvis_ty	pelvis_tz	hip_flexion_r	hip_adduction_r	hip_rotation_r	knee_angle_r	knee_angle_r_beta	ankle_angle_r	subtalar_angle_r	mtp_angle_r	hip_flexion_l	hip_adduction_l	hip_rotation_l	knee_angle_l	knee_angle_l_beta	ankle_angle_l	subtalar_angle_l	mtp_angle_l	L5_S1_Flex_Ext	L5_S1_Lat_Bending	L5_S1_axial_rotation	L4_L5_Flex_Ext	L4_L5_Lat_Bending	L4_L5_axial_rotation	L3_L4_Flex_Ext	L3_L4_Lat_Bending	L3_L4_axial_rotation	L2_L3_Flex_Ext	L2_L3_Lat_Bending	L2_L3_axial_rotation	L1_L2_Flex_Ext	L1_L2_Lat_Bending	L1_L2_axial_rotation	L1_T12_Flex_Ext	L1_T12_Lat_Bending	L1_T12_axial_rotation	Abs_r3	Abs_r2	Abs_r1	Abs_t1	Abs_t2	neck_flexion	neck_bending	neck_rotation	arm_flex_r	arm_add_r	arm_rot_r	elbow_flex_r	pro_sup_r	wrist_flex_r	wrist_dev_r	arm_flex_l	arm_add_l	arm_rot_l	elbow_flex_l	pro_sup_l	wrist_flex_l	wrist_dev_l
      9.20000000	      1.91660999	   -165.26164500	    -13.06104185	      0.30214847	     -0.08321023	     -0.03945353	     -3.77917716	     -8.12970630	      7.13863029	     21.09192263	      0.36812350	      0.00000000	      0.00000000	      0.00000000	     19.17805915	     -1.81387936	    -29.63741031	     11.61168784	      0.20266218	      0.00000000	      0.00000000	      0.00000000	      0.38850246	     -0.74213080	     10.12631027	      0.72148792	     -0.98703397	     10.75920466	      0.63827069	     -1.80441684	     10.75920466	      0.44401946	     -1.80441684	      8.86052149	      0.36076338	     -1.51335313	      8.22762710	      0.22199031	     -1.14956061	      7.59473270	      2.77503423	     -8.39513208	     56.31949984	      0.00000000	      0.00000000	     26.39416005	    -29.86598037	    -42.56671248	     89.96395981	    -24.31535325	     19.85593550	    122.91121468	     89.99559364	      0.00000000	      0.00000000	      7.88843410	    -30.81311212	    -53.97213361	    142.88506488	     89.99559364	      0.00000000	      0.00000000
      9.40000000	      3.10755765	   -165.27106169	     -9.22707596	      0.27507924	     -0.07206725	     -0.03332641	     -1.64986165	     -7.40854312	      4.63338097	     21.08971361	      0.36808494	      0.00000000	      0.00000000	      0.00000000	     21.96802793	     -1.21408157	    -28.28968837	     11.14646740	      0.19454256	      0.00000000	      0.00000000	      0.00000000	      0.28338378	     -0.78155627	      9.93295502	      0.52627202	     -1.03946984	     10.55376471	      0.46557121	     -1.90027591	     10.55376471	      0.32387932	     -1.90027591	      8.69133564	      0.26315018	     -1.59374954	      8.07052595	      0.16192549	     -1.21063066	      7.44971626	      2.02418201	     -8.84112081	     55.24411592	      0.00000000	      0.00000000	     26.90345742	    -33.26942912	    -43.09685722	     89.93431664	    -27.48136666	     26.65385176	    125.55456910	     89.99559364	      0.00000000	      0.00000000	      7.42145559	    -29.28555480	    -50.20208384	    140.55182436	     89.99559364	      0.00000000	      0.00000000
      9.60000000	      4.53091652	   -165.45879036	     -5.72053305	      0.24199071	     -0.05945438	     -0.02680572	      0.21748488	     -6.61967013	      2.02180663	     21.08070266	      0.36792767	      0.00000000	      0.00000000	      0.00000000	     25.14402458	     -0.64229761	    -28.03742362	     10.35961663	      0.18080942	      0.00000000	      0.00000000	      0.00000000	      0.17190193	     -0.77077240	      9.64748079	      0.31923907	     -1.02512729	     10.25044834	      0.28241768	     -1.87405602	     10.25044834	      0.19646671	     -1.87405602	      8.44154569	      0.15962813	     -1.57175908	      7.83857814	      0.09822476	     -1.19392645	      7.23561059	      1.22787828	     -8.71913157	     53.65639391	      0.00000000	      0.00000000	     27.24631762	    -35.95920029	    -43.32112043	     89.66470499	    -30.03152770	     36.75862514	    129.04681581	     89.99559364	      0.00000000	      0.00000000	      6.69992797	    -27.58534696	    -43.39573149	    137.90558459	     89.99559364	      0.00000000	      0.00000000
      9.80000000	      5.63731347	   -165.78903817	     -1.91718898	      0.20775526	     -0.05788112	     -0.02041987	      1.28262374	     -5.61361373	     -0.40681424	     20.05642658	      0.35005068	      0.00000000	      0.00000000	      0.00000000	     27.08920098	      0.32610266	    -30.47028197	      8.71559585	      0.15211584	      0.00000000	      0.00000000	      0.00000000	      0.14272300	     -0.75005959	      9.19994305	      0.26505088	     -0.99757926	      9.77493949	      0.23447962	     -1.82369489	      9.77493949	      0.16311812	     -1.82369489	      8.04995016	      0.13253258	     -1.52952152	      7.47495372	      0.08155192	     -1.16184231	      6.89995728	      1.01945612	     -8.48482412	     51.16732323	      0.00000000	      0.00000000	     27.30772896	    -39.01708047	    -43.47900421	     76.23946934	    -31.09008838	     39.82608445	    132.71433563	     89.99559364	      0.00000000	      0.00000000	      4.93921762	    -26.30915893	    -30.80036544	    133.84232519	     89.99559364	      0.00000000	      0.00000000
